REM GENRE Blues-Rock
REM DATE 2006
REM DISCID 9A0A0D0B
REM COMMENT "ExactAudioCopy v0.99pb3"
PERFORMER "Black Keys"
TITLE "Magic Potion"
FILE "01 - Just Got To Be.wav" WAVE
  TRACK 01 AUDIO
    TITLE "Just Got To Be"
    PERFORMER "Black Keys"
    INDEX 01 00:00:00
  TRACK 02 AUDIO
    TITLE "Your Touch"
    PERFORMER "Black Keys"
    INDEX 00 03:00:23
FILE "02 - Your Touch.wav" WAVE
    INDEX 01 00:00:00
  TRACK 03 AUDIO
    TITLE "You're The One"
    PERFORMER "Black Keys"
    INDEX 00 02:42:64
FILE "03 - You're The One.wav" WAVE
    INDEX 01 00:00:00
  TRACK 04 AUDIO
    TITLE "Just A Little Heat"
    PERFORMER "Black Keys"
    INDEX 00 03:28:27
FILE "04 - Just A Little Heat.wav" WAVE
    INDEX 01 00:00:00
  TRACK 05 AUDIO
    TITLE "Give Your Heart Away"
    PERFORMER "Black Keys"
    INDEX 00 03:41:42
FILE "05 - Give Your Heart Away.wav" WAVE
    INDEX 01 00:00:00
  TRACK 06 AUDIO
    TITLE "Strange Desire"
    PERFORMER "Black Keys"
    INDEX 00 03:26:50
FILE "06 - Strange Desire.wav" WAVE
    INDEX 01 00:00:00
  TRACK 07 AUDIO
    TITLE "Modern Times"
    PERFORMER "Black Keys"
    INDEX 00 04:20:59
FILE "07 - Modern Times.wav" WAVE
    INDEX 01 00:00:00
  TRACK 08 AUDIO
    TITLE "The Flame"
    PERFORMER "Black Keys"
    INDEX 00 04:20:29
FILE "08 - The Flame.wav" WAVE
    INDEX 01 00:00:00
  TRACK 09 AUDIO
    TITLE "Goodbye Babylon"
    PERFORMER "Black Keys"
    INDEX 00 04:35:74
FILE "09 - Goodbye Babylon.wav" WAVE
    INDEX 01 00:00:00
FILE "10 - Black Door.wav" WAVE
  TRACK 10 AUDIO
    TITLE "Black Door"
    PERFORMER "Black Keys"
    INDEX 01 00:00:00
  TRACK 11 AUDIO
    TITLE "Elevator"
    PERFORMER "Black Keys"
    INDEX 00 03:30:29
FILE "11 - Elevator.wav" WAVE
    INDEX 01 00:00:00
